C:\Users\gl24\Desktop\Patient 3 Collaboration with Marleny\nms_results\Right\EMG Files\Patient3_NormalGait_1pt0_02_Right_01_EMG.mot
version=1
nRows=14
nColumns=29
inDegrees=no
endheader
time	AddMag	AddLong	GlutMaxMed	GlutMed	Iliopsoas	Sartorius	SemiMemb	SemiTend	BicFemLong	RecFem	TenFascLat	Gracilis	BicFemShort	VastMed	VastLat	VastInt	GasMed	GasLat	TibAnt	TibPost	ExtHalLong	FlexHalLong	PeroneusLong	Sol	ExtDigLong	GlutMaxLat	FlexDigLong	RecFem2
0.835	0.0019836	0.0057983	0.058746	-0.005188	0.0032043	0.021973	-0.0067139	-0.0033569	0.005188	-0.020447	0.11841	0.0012207	0.026398	0.00015259	0.0086975	-0.00030518	-0.010071	-0.059662	0.0067139	0.0028992	-0.0073242	-0.007019	-0.013275	0.23178	-0.0018311	0.14175	-0.0045776	-0.048675
0.836	0.007782	0.0042725	0.040283	0.0030518	0.0038147	0.027924	-0.0010681	0.004425	0.002594	-0.020142	0.074158	0.002594	0.027161	0.0012207	0.01648	-0.010834	-0.071106	-0.079498	0.0064087	0.0030518	-0.00045776	0.00091553	-0.0039673	0.41199	-0.0012207	0.11643	-0.0062561	-0.061798
0.837	0.0019836	0.0061035	0.026245	-0.0067139	0.0064087	0.02243	-0.0068665	-0.0053406	0.0059509	-0.021515	-0.077972	-0.010986	0.020904	0.0056457	0.022125	-0.0053406	-0.072632	-0.11047	0.010834	0.00030518	-0.0021362	-0.0059509	-0.00091553	0.38544	-0.00030518	0.063629	-0.0090027	-0.065613
0.838	-0.00091553	0.005188	0.021667	-0.0071716	0.0076294	0.022125	-0.0033569	-0.0028992	0.0042725	-0.013123	-0.17792	0.0082398	0.030518	0.0094605	0.025787	-0.0090027	-0.046539	-0.096893	0.011291	0.0047302	-0.0013733	-0.0047302	0.0059509	0.43121	-0.0012207	0.062866	-0.0083923	-0.078735
0.839	-0.0019836	0.0038147	0.0086975	-0.013123	0.0086975	0.020447	0.0028992	-0.0061035	-0.0022888	-0.012817	-0.18036	0.025787	0.018921	0.0047302	0.032806	-0.014343	-0.1268	-0.071106	0.014191	0.005188	-0.0030518	-0.0042725	-0.011597	0.11169	-0.00091553	0.063934	-0.0035095	-0.087585
0.84	0.0076294	0.0048828	-0.01236	-0.00045776	0.0097656	0.019989	0.004425	0	0.00030518	0.0079346	-0.082855	0.037842	0.016022	0.013123	0.028229	-0.0099182	-0.21301	-0.025635	0.0080872	0.0050354	-0.00045776	-0.0064087	-0.0086975	-0.22461	-0.0016785	0.038757	0.005188	-0.062714
0.841	0.00076294	0.0045776	-0.033722	0.0019836	0.014648	0.011291	-0.0027466	-0.0021362	-0.0019836	0.022278	0.068054	0.0067139	0.014343	0.0028992	0.024719	-0.010529	-0.12192	0.019836	0.0062561	0.0045776	-0.0013733	0.0013733	-0.010071	-0.50888	-0.0013733	0.0027466	-0.0018311	-0.051117
0.842	0.0061035	0.0035095	-0.056	0.014038	0.011749	0.013886	0.0016785	0.0018311	-0.0022888	-0.0076294	0.14282	0.015259	0.019531	0.010681	0.0054932	-0.018616	-0.080566	0.074005	0.0076294	-0.0028992	-0.0012207	0.0018311	-0.010376	-0.77286	-0.0016785	-0.072479	-0.005188	-0.041809
0.843	0.0021362	0.0047302	-0.051117	0.019684	0.018616	0.01358	-0.00091553	-0.0048828	0.0068665	-0.02655	0.32288	0.0068665	0.011139	0.0053406	-0.011444	-0.017242	-0.14191	0.08255	0.0071716	-0.002594	0.0010681	0.0053406	-0.016632	-0.81726	-0.0016785	-0.069733	-0.0033569	-0.046844
0.844	-0.0035095	0.0059509	-0.0354	0.018616	0.011291	0.016174	0.00045776	-0.0085449	0.00061035	-0.032959	0.27893	0.007782	0.012817	0.0010681	-0.023804	-0.017853	-0.097351	0.050507	0.015259	-0.0053406	-0.0013733	-0.0019836	-0.02121	-0.87616	0.0056457	-0.048523	-0.0024414	-0.043945
0.845	-0.0019836	0.0039673	-0.022125	0.030823	0.014496	0.0080872	0.0071716	-0.005188	-0.0030518	-0.049744	0.17746	0.018158	0.0085449	0.0038147	-0.031738	-0.004425	-0.088196	-0.002594	0.012817	-0.012054	-0.0030518	-0.00015259	-0.018311	-0.0053406	-0.0045776	0.0015259	-0.0016785	-0.06012
0.846	-0.0086975	0.00091553	-0.018463	0.027466	0.011139	0.00061035	0.002594	-0.012817	0.004425	-0.055695	0.11688	0.0024414	0.010529	-0.0079346	-0.029602	-0.011749	-0.073853	-0.10452	0.014343	-0.0079346	-0.004425	-0.0065613	-0.016022	0.31128	0.0010681	0.044403	-0.0039673	-0.059357
0.847	-0.013428	0.0091553	-0.007782	0.033264	0.013886	0.0061035	0.0048828	-0.0015259	-0.00030518	-0.060272	0.17166	0.014954	0.007782	-0.00061035	-0.020904	0.0021362	-0.059051	-0.13321	0.014038	-0.0054932	-0.00045776	0.0030518	-0.01297	0.52033	-0.0061035	0.074158	-0.0035095	-0.040131
0.848	-0.0053406	0.0032043	-0.014496	0.012817	0.0048828	-0.00091553	0.0035095	-0.0067139	0.0042725	-0.058289	0.23941	0.0073242	0.002594	0.0059509	-0.019836	-0.0050354	-0.066528	-0.10666	0.0086975	0.002594	-0.0090027	0.0024414	-0.002594	0.54214	0.0016785	0.10056	-0.002594	-0.027313
